<!-- One pixel per mm2 -->
<svg height="210" width="297" xmlns="http://www.w3.org/2000/svg">
	<!-- Roof -->
	<path d="M100 80 L160 40 L220 80" style="fill:none;stroke:black;stroke-width:1" />
	<!-- Frame -->
	<rect width="120" height="70" x="100" y="80" style="fill:none;stroke:black;stroke-width:1"/>
	<!-- Door -->
	<rect width="20" height="40" x="150" y="110" style="fill:none;stroke:black;stroke-width:1"/>
	<!-- Left window -->
	<rect width="20" height="20" x="120" y="105" style="fill:none;stroke:black;stroke-width:1"/>
	<path d="M120 115 L140 115 M130 105 L130 125 " style="fill:none;stroke:black;stroke-width:1" />
	<!-- Right window -->
	<rect width="20" height="20" x="180" y="105" style="fill:none;stroke:black;stroke-width:1"/>
	<path d="M180 115 L200 115 M190 105 L190 125 " style="fill:none;stroke:black;stroke-width:1" />
	<!-- Sun -->
	<circle r="25" cx="40" cy="40" style="fill:none;stroke:black;stroke-width:1" />
	<path d="M40 5 Q 60 25 75 20" style="fill:none;stroke:black;stroke-width:1" />
	<path d="M75 20 Q 70 40 75 60" style="fill:none;stroke:black;stroke-width:1" />
	<path d="M75 60 Q 60 60 40 80" style="fill:none;stroke:black;stroke-width:1" />
	<path d="M40 80 Q 20 60 5 60" style="fill:none;stroke:black;stroke-width:1" />
	<path d="M5 60 Q 15 40 5 15" style="fill:none;stroke:black;stroke-width:1" />
	<path d="M5 15 Q 25 20 40 5" style="fill:none;stroke:black;stroke-width:1" />
	
	
</svg>
