<svg width="297" height="210" viewBox="0 0 297 210" xmlns="http://www.w3.org/2000/svg">

    <!-- ===== DRAWING ===== -->

    <!-- D -->
    <path d="M5 15 L5 95 L30 95 L40 85 L40 25 L30 15 L5 15" />

    <!-- R -->
    <path d="M50 95 L50 15 L75 15 L85 25 L85 50 L75 60 L50 60 L85 95" />

    <!-- A -->
    <path d="M95 95 L105 15 L115 15 L125 95 M100 60 L120 60" />

    <!-- W -->
    <path d="M135 15 L145 95 L155 55 L165 95 L175 15" />

    <!-- I -->
    <path d="M185 15 L195 15 L190 80 L185 15 M190 15 L190 95" />

    <!-- N -->
    <path d="M205 95 L205 15 L225 95 L225 15" />

    <!-- G -->
    <path d="M235 25 L245 15 L265 15 L275 25 M275 60 L255 60 M275 60 L275 85 L265 95 L245 95 L235 85 L235 25" />

    <!-- ===== COBOT (bottom line, centered) ===== -->

	<!-- C -->
	<path d="M80 125 L70 115 L50 115 L45 125 L45 185 L50 195 L70 195 L80 185" />
	<!-- C claw -->
	<path d="M80 125 L55 130 L55 180 L80 185 M45 145 L5 145 L15 165 L45 165" />

	<!-- O -->
	<path d="M90 125 L100 115 L120 115 L130 125 L130 185 L120 195 L100 195 L90 185 L90 125" />

	<!-- B -->
	<path d="M140 195 L140 115 L160 115 L170 125 L160 140 L140 140 M160 140 L170 155 L160 195 L140 195" />

	<!-- O -->
	<path d="M180 125 L190 115 L210 115 L220 125 L220 185 L210 195 L190 195 L180 185 L180 125" />

	<!-- T -->
	<path d="M230 115 L260 115 M245 115 L245 195" />

</svg>
