<svg width="297" height="210" viewBox="0 0 240 210" xmlns="http://www.w3.org/2000/svg">
  <path d="
    M 148 105

    Q 138 115 148 125
    Q 158 135 168 125
    Q 178 115 168 105
    Q 158 95 148 95

    Q 128 95 128 115
    Q 138 145 168 145

    Q 198 135 198 105
    Q 188 75 148 75

    Q 108 80 108 115
    Q 118 165 168 165

    Q 218 155 218 105
    Q 208 55 148 55

    Q 88 60 88 115
    Q 98 185 168 185

    Q 238 175 238 105
    Q 228 35 148 35

    Q 68 45 68 115
    Q 88 205 178 205
  "
  fill="none"
  stroke="black"
  stroke-width="1.5"/>
</svg>
